<svg id="svg" version="1.1" xmlns="http://www.w3.org/2000/svg" xmlns:xlink="http://www.w3.org/1999/xlink" width="400" height="400" viewBox="0, 0, 400,400"><g id="svgg"><path id="path0" d="M183.400 24.654 C 55.884 36.480,-16.149 178.473,49.702 288.200 C 120.513 406.191,294.174 399.719,355.617 276.800 C 416.740 154.522,319.423 12.039,183.400 24.654 M201.488 73.561 C 203.200 74.200,207.030 75.746,210.000 76.996 C 212.970 78.247,216.930 79.861,218.800 80.583 C 220.670 81.306,224.180 82.710,226.600 83.705 C 229.020 84.699,232.530 86.140,234.400 86.907 C 236.270 87.673,240.500 89.422,243.800 90.793 C 247.100 92.164,251.150 93.798,252.800 94.423 C 254.450 95.049,257.690 96.347,260.000 97.309 C 269.373 101.212,321.458 122.475,327.311 124.788 C 330.034 125.865,331.391 127.296,330.777 128.443 C 330.083 129.739,332.004 128.919,282.000 149.265 C 272.870 152.979,264.774 156.301,264.009 156.646 C 263.245 156.991,260.185 158.233,257.209 159.405 C 251.937 161.483,248.195 163.010,228.800 171.000 C 223.630 173.129,218.050 175.383,216.400 176.007 C 214.750 176.631,210.970 178.164,208.000 179.412 C 196.288 184.336,198.447 184.566,177.800 176.196 C 168.780 172.539,160.050 169.036,158.400 168.411 C 156.750 167.786,150.450 165.260,144.400 162.798 C 138.350 160.336,129.260 156.649,124.200 154.604 C 104.165 146.507,91.841 141.516,84.200 138.405 C 79.800 136.613,74.310 134.434,72.000 133.561 C 64.520 130.736,61.800 129.202,61.800 127.808 C 61.800 126.204,62.418 125.890,77.200 119.986 C 83.910 117.307,96.420 112.269,105.000 108.791 C 144.500 92.778,152.121 89.697,159.600 86.715 C 163.450 85.180,171.190 82.062,176.800 79.787 C 182.410 77.511,188.800 74.923,191.000 74.035 C 195.832 72.084,197.347 72.016,201.488 73.561 M64.800 141.678 C 68.430 143.233,73.650 145.489,76.400 146.692 C 79.150 147.895,84.280 150.098,87.800 151.587 C 94.968 154.618,100.480 156.989,116.200 163.799 C 122.140 166.372,131.590 170.465,137.200 172.895 C 142.810 175.324,150.280 178.565,153.800 180.097 C 157.320 181.629,162.900 184.015,166.200 185.398 C 175.605 189.342,181.226 191.793,183.425 192.909 C 187.981 195.222,187.948 195.374,179.893 209.400 C 178.124 212.480,175.596 216.890,174.275 219.200 C 168.221 229.788,169.499 229.423,157.400 224.018 C 153.880 222.445,149.200 220.333,147.000 219.323 C 144.800 218.314,140.480 216.364,137.400 214.990 C 125.968 209.890,116.390 205.575,109.000 202.197 C 104.820 200.286,97.800 197.137,93.400 195.200 C 89.000 193.263,81.980 190.113,77.800 188.201 C 73.620 186.288,67.050 183.322,63.200 181.610 C 37.456 170.156,39.511 172.421,44.448 160.948 C 55.731 134.729,53.502 136.839,64.800 141.678 M337.530 138.835 C 339.449 139.505,339.776 140.154,348.655 160.940 C 353.149 171.462,353.181 171.352,344.600 175.012 C 342.180 176.044,339.319 177.334,338.243 177.880 C 337.166 178.425,333.476 180.099,330.043 181.598 C 326.609 183.098,319.570 186.244,314.400 188.590 C 309.230 190.936,302.383 193.989,299.185 195.376 C 295.987 196.762,292.567 198.309,291.585 198.812 C 290.603 199.315,287.280 200.847,284.200 202.216 C 278.692 204.664,270.292 208.435,254.298 215.640 C 249.844 217.646,243.770 220.360,240.800 221.670 C 237.830 222.980,233.640 224.868,231.489 225.866 C 224.748 228.993,224.326 228.794,219.363 220.141 C 207.741 199.878,206.400 197.426,206.400 196.433 C 206.400 194.663,209.275 192.765,216.092 190.033 C 217.691 189.392,220.440 188.204,222.200 187.394 C 223.960 186.584,227.110 185.229,229.200 184.384 C 231.290 183.538,236.150 181.472,240.000 179.793 C 243.850 178.114,251.320 174.875,256.600 172.596 C 261.880 170.317,269.170 167.162,272.800 165.585 C 276.430 164.008,281.200 161.951,283.400 161.012 C 285.600 160.074,290.820 157.818,295.000 155.999 C 299.180 154.180,304.220 152.017,306.200 151.191 C 308.180 150.365,312.770 148.394,316.400 146.811 C 324.402 143.319,332.897 139.700,334.800 138.971 C 335.570 138.676,336.218 138.427,336.240 138.418 C 336.262 138.408,336.843 138.596,337.530 138.835 M65.600 192.176 C 70.770 194.534,77.970 197.782,81.600 199.396 C 85.230 201.009,91.620 203.891,95.800 205.801 C 99.980 207.710,106.550 210.677,110.400 212.394 C 114.250 214.111,120.460 216.902,124.200 218.598 C 127.940 220.294,135.140 223.534,140.200 225.798 C 145.260 228.062,152.460 231.305,156.200 233.004 C 159.940 234.702,164.350 236.699,166.000 237.441 C 171.245 239.800,172.258 239.211,176.771 231.177 C 178.185 228.660,180.186 225.160,181.217 223.400 C 182.248 221.640,183.971 218.604,185.046 216.653 C 188.625 210.155,190.531 208.914,191.294 212.586 C 192.079 216.366,191.449 333.862,190.638 334.758 C 189.178 336.371,190.242 336.872,104.800 294.310 C 82.030 282.967,61.330 272.697,58.800 271.487 C 53.543 268.973,52.240 267.929,51.635 265.749 C 51.067 263.706,51.028 191.596,51.593 189.625 C 52.456 186.615,54.030 186.901,65.600 192.176 M341.038 188.442 C 341.832 189.319,342.494 255.676,341.787 263.548 C 341.368 268.225,343.036 267.191,308.200 284.370 C 291.260 292.724,274.790 300.927,271.600 302.598 C 263.865 306.651,208.736 333.855,206.224 334.859 C 203.891 335.791,202.711 335.601,202.069 334.191 C 201.420 332.767,201.391 213.518,202.039 211.660 C 202.906 209.174,204.599 210.475,207.680 215.993 C 209.478 219.215,214.984 228.829,217.453 233.060 C 221.346 239.731,222.020 239.886,230.329 236.024 C 235.953 233.409,240.977 231.132,252.000 226.203 C 256.070 224.383,263.270 221.146,268.000 219.010 C 272.730 216.875,279.750 213.721,283.600 212.003 C 296.316 206.327,299.756 204.772,304.000 202.784 C 306.310 201.702,310.900 199.622,314.200 198.162 C 324.269 193.707,331.252 190.560,334.400 189.059 C 337.893 187.394,339.919 187.205,341.038 188.442 " stroke="none" fill="current" fill-rule="evenodd"></path><path id="path1" d="M0.000 200.000 L 0.000 400.000 200.000 400.000 L 400.000 400.000 400.000 200.000 L 400.000 0.000 200.000 0.000 L 0.000 0.000 0.000 200.000 M214.800 24.604 C 332.253 35.287,405.866 156.419,361.013 265.200 C 329.834 340.818,249.892 384.778,169.400 370.567 C 63.385 351.849,-0.446 243.374,34.550 141.399 C 60.348 66.224,135.688 17.407,214.800 24.604 M191.000 74.035 C 188.800 74.923,182.410 77.511,176.800 79.787 C 171.190 82.062,163.450 85.180,159.600 86.715 C 152.121 89.697,144.500 92.778,105.000 108.791 C 96.420 112.269,83.910 117.307,77.200 119.986 C 57.504 127.852,57.425 128.057,72.000 133.561 C 74.310 134.434,79.800 136.613,84.200 138.405 C 91.841 141.516,104.165 146.507,124.200 154.604 C 129.260 156.649,138.350 160.336,144.400 162.798 C 150.450 165.260,156.750 167.786,158.400 168.411 C 160.050 169.036,168.780 172.539,177.800 176.196 C 198.447 184.566,196.288 184.336,208.000 179.412 C 210.970 178.164,214.750 176.631,216.400 176.007 C 218.050 175.383,223.630 173.129,228.800 171.000 C 248.195 163.010,251.937 161.483,257.209 159.405 C 260.185 158.233,263.245 156.991,264.009 156.646 C 264.774 156.301,272.870 152.979,282.000 149.265 C 332.004 128.919,330.083 129.739,330.777 128.443 C 331.391 127.296,330.034 125.865,327.311 124.788 C 321.458 122.475,269.373 101.212,260.000 97.309 C 257.690 96.347,254.450 95.049,252.800 94.423 C 251.150 93.798,247.100 92.164,243.800 90.793 C 240.500 89.422,236.270 87.673,234.400 86.907 C 232.530 86.140,229.020 84.699,226.600 83.705 C 224.180 82.710,220.670 81.306,218.800 80.583 C 216.930 79.861,212.970 78.247,210.000 76.996 C 197.373 71.679,196.986 71.619,191.000 74.035 M55.099 139.020 C 53.891 139.686,52.646 141.940,49.625 148.934 C 40.070 171.055,40.524 169.652,42.300 171.584 C 43.379 172.757,44.356 173.226,63.200 181.610 C 67.050 183.322,73.620 186.288,77.800 188.201 C 81.980 190.113,89.000 193.263,93.400 195.200 C 97.800 197.137,104.820 200.286,109.000 202.197 C 116.390 205.575,125.968 209.890,137.400 214.990 C 140.480 216.364,144.800 218.314,147.000 219.323 C 149.200 220.333,153.880 222.445,157.400 224.018 C 169.499 229.423,168.221 229.788,174.275 219.200 C 175.596 216.890,178.124 212.480,179.893 209.400 C 187.948 195.374,187.981 195.222,183.425 192.909 C 181.226 191.793,175.605 189.342,166.200 185.398 C 162.900 184.015,157.320 181.629,153.800 180.097 C 150.280 178.565,142.810 175.324,137.200 172.895 C 131.590 170.465,122.140 166.372,116.200 163.799 C 100.480 156.989,94.968 154.618,87.800 151.587 C 84.280 150.098,79.150 147.895,76.400 146.692 C 57.268 138.322,56.722 138.126,55.099 139.020 M334.800 138.971 C 332.897 139.700,324.402 143.319,316.400 146.811 C 312.770 148.394,308.180 150.365,306.200 151.191 C 304.220 152.017,299.180 154.180,295.000 155.999 C 290.820 157.818,285.600 160.074,283.400 161.012 C 281.200 161.951,276.430 164.008,272.800 165.585 C 269.170 167.162,261.880 170.317,256.600 172.596 C 251.320 174.875,243.850 178.114,240.000 179.793 C 236.150 181.472,231.290 183.538,229.200 184.384 C 227.110 185.229,223.960 186.584,222.200 187.394 C 220.440 188.204,217.691 189.392,216.092 190.033 C 209.275 192.765,206.400 194.663,206.400 196.433 C 206.400 197.426,207.741 199.878,219.363 220.141 C 224.326 228.794,224.748 228.993,231.489 225.866 C 233.640 224.868,237.830 222.980,240.800 221.670 C 243.770 220.360,249.844 217.646,254.298 215.640 C 270.292 208.435,278.692 204.664,284.200 202.216 C 287.280 200.847,290.603 199.315,291.585 198.812 C 292.567 198.309,295.987 196.762,299.185 195.376 C 302.383 193.989,309.230 190.936,314.400 188.590 C 319.570 186.244,326.609 183.098,330.043 181.598 C 333.476 180.099,337.166 178.425,338.243 177.880 C 339.319 177.334,342.180 176.044,344.600 175.012 C 353.943 171.027,354.081 173.206,342.860 147.493 C 339.685 140.218,337.858 137.713,336.240 138.418 C 336.218 138.427,335.570 138.676,334.800 138.971 M52.493 187.916 C 52.214 188.103,51.809 188.872,51.593 189.625 C 51.028 191.596,51.067 263.706,51.635 265.749 C 52.240 267.929,53.543 268.973,58.800 271.487 C 61.330 272.697,82.030 282.967,104.800 294.310 C 190.242 336.872,189.178 336.371,190.638 334.758 C 191.449 333.862,192.079 216.366,191.294 212.586 C 190.531 208.914,188.625 210.155,185.046 216.653 C 183.971 218.604,182.248 221.640,181.217 223.400 C 180.186 225.160,178.185 228.660,176.771 231.177 C 172.258 239.211,171.245 239.800,166.000 237.441 C 164.350 236.699,159.940 234.702,156.200 233.004 C 152.460 231.305,145.260 228.062,140.200 225.798 C 135.140 223.534,127.940 220.294,124.200 218.598 C 120.460 216.902,114.250 214.111,110.400 212.394 C 106.550 210.677,99.980 207.710,95.800 205.801 C 91.620 203.891,85.230 201.009,81.600 199.396 C 77.970 197.782,70.770 194.534,65.600 192.176 C 56.646 188.094,53.668 187.126,52.493 187.916 M334.400 189.059 C 331.252 190.560,324.269 193.707,314.200 198.162 C 310.900 199.622,306.310 201.702,304.000 202.784 C 299.756 204.772,296.316 206.327,283.600 212.003 C 279.750 213.721,272.730 216.875,268.000 219.010 C 263.270 221.146,256.070 224.383,252.000 226.203 C 240.977 231.132,235.953 233.409,230.329 236.024 C 222.020 239.886,221.346 239.731,217.453 233.060 C 214.984 228.829,209.478 219.215,207.680 215.993 C 204.599 210.475,202.906 209.174,202.039 211.660 C 201.391 213.518,201.420 332.767,202.069 334.191 C 202.711 335.601,203.891 335.791,206.224 334.859 C 208.736 333.855,263.865 306.651,271.600 302.598 C 274.790 300.927,291.260 292.724,308.200 284.370 C 343.036 267.191,341.368 268.225,341.787 263.548 C 342.494 255.676,341.832 189.319,341.038 188.442 C 339.919 187.205,337.893 187.394,334.400 189.059 " stroke="none" fill="#ffffff" fill-rule="evenodd"></path></g></svg>