<svg id="svg" version="1.1" xmlns="http://www.w3.org/2000/svg" xmlns:xlink="http://www.w3.org/1999/xlink" width="400" height="400" viewBox="0, 0, 400,400"><g id="svgg"><path id="path0" d="M179.400 25.045 C 38.142 41.959,-25.694 208.564,68.392 314.762 C 156.886 414.648,321.815 380.713,364.173 253.904 C 379.946 206.683,374.040 149.263,349.473 111.000 C 348.202 109.020,345.671 105.054,343.848 102.186 C 309.851 48.702,243.147 17.412,179.400 25.045 M319.393 89.435 C 323.695 90.823,327.030 92.345,328.985 93.811 C 329.873 94.478,331.500 95.542,332.600 96.177 C 334.967 97.542,341.014 103.288,341.884 105.000 C 342.220 105.660,343.194 107.118,344.050 108.241 C 345.566 110.230,346.637 113.192,347.650 118.200 C 347.873 119.300,348.496 121.640,349.034 123.400 C 350.327 127.623,350.385 132.953,349.174 136.310 C 348.720 137.569,348.181 139.727,347.975 141.105 C 347.176 146.469,343.920 151.759,337.209 158.602 C 333.971 161.903,331.003 165.233,330.614 166.002 C 329.273 168.649,327.884 170.093,324.646 172.206 C 320.956 174.613,307.250 188.134,305.392 191.200 C 303.872 193.708,302.853 194.749,301.000 195.690 C 298.657 196.878,282.318 213.188,280.052 216.600 C 278.633 218.736,277.529 219.843,275.396 221.267 C 271.835 223.644,258.598 236.910,256.307 240.398 C 255.025 242.348,253.902 243.458,251.800 244.853 C 248.389 247.117,232.080 263.455,230.890 265.800 C 229.939 267.675,228.996 268.581,226.000 270.504 C 223.039 272.404,209.640 285.950,207.507 289.200 C 206.253 291.110,205.122 292.242,203.248 293.465 C 201.791 294.415,197.069 298.732,192.248 303.523 C 179.816 315.877,174.383 318.451,160.200 318.708 L 152.200 318.854 147.909 317.447 C 145.550 316.673,142.850 315.480,141.909 314.795 C 138.788 312.523,135.021 310.034,133.400 309.174 C 131.256 308.036,41.110 218.017,39.693 215.600 C 39.113 214.610,37.969 212.900,37.151 211.800 C 35.066 208.996,32.088 202.699,31.792 200.470 C 31.656 199.442,31.107 197.194,30.572 195.475 C 29.230 191.162,29.225 186.254,30.559 182.267 C 31.087 180.690,31.629 178.509,31.763 177.420 C 32.299 173.065,37.935 163.000,42.123 158.917 C 51.184 150.085,70.620 144.102,79.400 147.444 C 80.280 147.779,81.990 148.328,83.200 148.665 C 84.410 149.001,88.280 150.724,91.800 152.494 L 98.200 155.711 128.616 186.055 C 158.612 215.981,159.054 216.400,160.610 216.400 C 162.174 216.400,162.737 215.852,221.594 157.037 C 268.508 110.158,281.623 97.267,283.961 95.737 C 285.589 94.672,287.696 93.295,288.644 92.677 C 289.591 92.059,292.308 90.862,294.683 90.016 L 299.000 88.480 307.593 88.440 C 315.799 88.402,316.330 88.447,319.393 89.435 " stroke="none" fill="current" fill-rule="evenodd"></path><path id="path1" d="M0.000 200.000 L 0.000 400.000 200.000 400.000 L 400.000 400.000 400.000 200.000 L 400.000 0.000 200.000 0.000 L 0.000 0.000 0.000 200.000 M217.200 25.007 C 269.973 31.152,316.856 59.722,343.848 102.186 C 345.671 105.054,348.202 109.020,349.473 111.000 C 363.744 133.226,373.200 168.140,373.200 198.600 C 373.200 312.583,265.421 396.009,154.896 367.579 C 52.621 341.271,-2.856 230.550,37.059 132.400 C 66.121 60.938,141.229 16.162,217.200 25.007 M294.683 90.016 C 292.308 90.862,289.591 92.059,288.644 92.677 C 287.696 93.295,285.589 94.672,283.961 95.737 C 281.623 97.267,268.508 110.158,221.594 157.037 C 162.737 215.852,162.174 216.400,160.610 216.400 C 159.054 216.400,158.612 215.981,128.616 186.055 L 98.200 155.711 91.800 152.494 C 88.280 150.724,84.410 149.001,83.200 148.665 C 81.990 148.328,80.280 147.779,79.400 147.444 C 70.620 144.102,51.184 150.085,42.123 158.917 C 37.935 163.000,32.299 173.065,31.763 177.420 C 31.629 178.509,31.087 180.690,30.559 182.267 C 29.225 186.254,29.230 191.162,30.572 195.475 C 31.107 197.194,31.656 199.442,31.792 200.470 C 32.088 202.699,35.066 208.996,37.151 211.800 C 37.969 212.900,39.113 214.610,39.693 215.600 C 41.110 218.017,131.256 308.036,133.400 309.174 C 135.021 310.034,138.788 312.523,141.909 314.795 C 142.850 315.480,145.550 316.673,147.909 317.447 L 152.200 318.854 160.200 318.708 C 174.383 318.451,179.816 315.877,192.248 303.523 C 197.069 298.732,201.791 294.415,203.248 293.465 C 205.122 292.242,206.253 291.110,207.507 289.200 C 209.640 285.950,223.039 272.404,226.000 270.504 C 228.996 268.581,229.939 267.675,230.890 265.800 C 232.080 263.455,248.389 247.117,251.800 244.853 C 253.902 243.458,255.025 242.348,256.307 240.398 C 258.598 236.910,271.835 223.644,275.396 221.267 C 277.529 219.843,278.633 218.736,280.052 216.600 C 282.318 213.188,298.657 196.878,301.000 195.690 C 302.853 194.749,303.872 193.708,305.392 191.200 C 307.250 188.134,320.956 174.613,324.646 172.206 C 327.884 170.093,329.273 168.649,330.614 166.002 C 331.003 165.233,333.971 161.903,337.209 158.602 C 343.920 151.759,347.176 146.469,347.975 141.105 C 348.181 139.727,348.720 137.569,349.174 136.310 C 350.385 132.953,350.327 127.623,349.034 123.400 C 348.496 121.640,347.873 119.300,347.650 118.200 C 346.637 113.192,345.566 110.230,344.050 108.241 C 343.194 107.118,342.220 105.660,341.884 105.000 C 341.014 103.288,334.967 97.542,332.600 96.177 C 331.500 95.542,329.873 94.478,328.985 93.811 C 323.684 89.834,317.940 88.392,307.593 88.440 L 299.000 88.480 294.683 90.016 " stroke="none" fill="#ffffff" fill-rule="evenodd"></path></g></svg>