<svg id="svg" version="1.1" xmlns="http://www.w3.org/2000/svg" xmlns:xlink="http://www.w3.org/1999/xlink" width="400" height="400" viewBox="0, 0, 400,400"><g id="svgg"><path id="path0" d="M178.800 24.998 C 63.393 38.453,-7.026 155.494,35.485 263.200 C 64.061 335.600,139.392 381.021,216.258 372.196 C 351.530 356.666,418.222 202.650,336.979 93.405 C 300.968 44.983,238.627 18.023,178.800 24.998 M146.620 91.609 C 152.552 94.441,153.600 97.180,153.600 109.855 C 153.600 121.817,152.638 123.779,144.774 127.858 L 141.800 129.400 115.800 129.400 L 89.800 129.400 86.694 127.917 C 78.699 124.099,77.600 121.899,77.600 109.705 L 77.600 100.177 78.945 97.370 C 80.427 94.278,81.975 92.742,85.000 91.360 L 87.000 90.446 115.543 90.423 L 144.086 90.400 146.620 91.609 M197.749 134.702 C 201.115 136.296,205.326 140.369,205.999 142.681 C 206.307 143.743,206.404 152.530,206.320 171.889 L 206.200 199.578 205.289 200.489 L 204.378 201.400 135.154 201.400 L 65.931 201.400 64.965 200.278 L 64.000 199.155 64.000 172.992 L 64.000 146.828 66.300 142.321 L 68.600 137.814 72.200 135.908 C 74.180 134.860,76.340 133.837,77.000 133.635 C 77.709 133.418,102.100 133.295,136.600 133.334 L 195.000 133.400 197.749 134.702 M262.586 139.820 C 263.403 140.161,265.090 140.621,266.335 140.842 C 273.215 142.063,279.329 145.181,284.675 150.194 L 287.654 152.987 295.395 168.411 C 305.274 188.092,306.498 189.616,314.600 192.315 C 316.580 192.975,319.460 193.616,321.000 193.741 C 322.540 193.865,324.747 194.334,325.904 194.783 C 327.062 195.233,328.513 195.600,329.131 195.600 C 330.750 195.600,338.484 198.185,341.207 199.636 C 346.571 202.495,350.800 208.062,353.389 215.671 L 354.794 219.800 354.797 240.577 L 354.800 261.354 353.521 265.177 C 352.361 268.642,349.594 273.487,347.255 276.145 C 346.895 276.555,344.620 277.905,342.200 279.145 L 337.800 281.400 326.107 281.522 C 310.883 281.681,310.576 281.554,309.965 274.851 C 309.461 269.327,308.042 266.954,301.325 260.395 L 295.800 255.000 291.755 253.700 C 285.814 251.791,275.341 251.738,269.899 253.589 C 264.862 255.302,264.697 255.417,259.165 261.062 C 253.086 267.266,251.726 269.646,251.330 274.771 C 251.040 278.531,250.214 280.184,248.204 281.024 C 246.546 281.717,142.056 281.906,140.250 281.219 C 138.845 280.685,138.329 279.497,137.974 275.975 C 137.193 268.221,130.386 259.338,121.819 254.893 L 117.400 252.600 108.586 252.473 C 98.487 252.328,97.212 252.594,92.910 255.739 C 91.640 256.667,89.775 257.906,88.767 258.492 C 85.134 260.600,78.355 271.840,77.719 276.810 C 77.128 281.423,76.678 281.600,65.500 281.600 C 54.908 281.600,54.803 281.567,50.261 276.812 C 46.078 272.434,46.340 274.671,46.480 244.600 L 46.600 218.600 47.772 216.200 C 49.019 213.647,53.007 209.156,55.000 208.060 C 56.100 207.455,62.859 207.383,136.335 207.200 L 216.471 207.000 217.235 206.056 C 217.973 205.145,218.000 204.044,218.010 175.056 C 218.020 140.900,218.012 140.983,221.400 139.582 C 223.022 138.911,260.936 139.130,262.586 139.820 M147.531 148.331 C 143.796 152.066,143.754 153.165,147.200 156.968 C 152.231 162.519,152.734 162.400,124.161 162.400 C 95.304 162.400,96.995 161.996,97.262 168.831 C 97.476 174.320,94.687 173.766,123.314 174.000 C 152.643 174.240,152.173 174.136,147.600 179.361 C 144.815 182.544,144.833 183.755,147.709 186.630 C 151.840 190.762,151.939 190.713,164.159 178.424 C 176.409 166.105,176.416 168.669,164.100 156.289 C 151.647 143.773,151.946 143.916,147.531 148.331 M236.922 157.765 L 235.800 158.730 235.675 176.065 C 235.539 194.999,235.630 195.981,237.595 196.998 C 238.975 197.711,287.110 197.918,288.950 197.219 C 290.809 196.512,290.954 195.518,289.667 192.301 C 289.028 190.705,288.386 188.850,288.238 188.178 C 288.091 187.506,287.355 186.090,286.603 185.032 C 285.850 183.974,284.841 181.926,284.361 180.482 C 281.841 172.911,275.649 162.912,271.551 159.794 C 267.386 156.627,268.490 156.800,252.442 156.800 L 238.045 156.800 236.922 157.765 M117.820 262.696 C 123.668 265.644,124.776 266.771,127.844 272.887 C 130.972 279.125,131.162 281.719,128.981 288.400 L 127.480 293.000 124.041 296.527 C 121.379 299.258,119.930 300.386,117.622 301.527 L 114.641 303.000 107.821 303.000 L 101.000 303.000 98.275 301.709 C 90.335 297.949,84.127 286.304,86.370 279.378 C 86.793 278.070,87.254 276.150,87.393 275.110 C 87.557 273.887,88.130 272.547,89.018 271.310 C 89.773 270.260,90.736 268.770,91.159 268.000 C 92.308 265.905,93.838 264.664,97.600 262.778 C 102.732 260.204,103.629 259.988,108.600 260.136 L 113.000 260.266 117.820 262.696 M289.394 261.567 C 293.517 263.597,298.348 268.397,300.405 272.507 L 302.000 275.693 302.000 281.634 L 302.000 287.575 299.500 292.484 L 297.000 297.392 293.328 299.870 C 288.679 303.005,287.924 303.199,280.400 303.180 C 272.752 303.161,272.175 302.961,264.908 297.808 C 264.418 297.460,262.978 295.087,261.708 292.535 L 259.400 287.894 259.400 281.447 L 259.400 275.000 260.798 272.400 C 263.486 267.402,269.750 262.013,274.800 260.353 C 277.650 259.417,286.525 260.155,289.394 261.567 " stroke="none" fill="current" fill-rule="evenodd"></path><path id="path1" d="M0.000 200.000 L 0.000 400.000 200.000 400.000 L 400.000 400.000 400.000 200.000 L 400.000 0.000 200.000 0.000 L 0.000 0.000 0.000 200.000 M216.258 25.004 C 333.060 38.413,403.651 157.996,358.612 266.156 C 327.027 342.007,245.101 385.879,164.600 370.051 C 51.751 347.863,-9.480 225.462,40.612 122.200 C 72.540 56.382,144.196 16.731,216.258 25.004 M85.000 91.360 C 81.975 92.742,80.427 94.278,78.945 97.370 L 77.600 100.177 77.600 109.705 C 77.600 121.899,78.699 124.099,86.694 127.917 L 89.800 129.400 115.800 129.400 L 141.800 129.400 144.774 127.858 C 152.638 123.779,153.600 121.817,153.600 109.855 C 153.600 97.180,152.552 94.441,146.620 91.609 L 144.086 90.400 115.543 90.423 L 87.000 90.446 85.000 91.360 M77.000 133.635 C 76.340 133.837,74.180 134.860,72.200 135.908 L 68.600 137.814 66.300 142.321 L 64.000 146.828 64.000 172.992 L 64.000 199.155 64.965 200.278 L 65.931 201.400 135.154 201.400 L 204.378 201.400 205.289 200.489 L 206.200 199.578 206.320 171.889 C 206.404 152.530,206.307 143.743,205.999 142.681 C 205.326 140.369,201.115 136.296,197.749 134.702 L 195.000 133.400 136.600 133.334 C 102.100 133.295,77.709 133.418,77.000 133.635 M221.400 139.582 C 218.012 140.983,218.020 140.900,218.010 175.056 C 218.000 204.044,217.973 205.145,217.235 206.056 L 216.471 207.000 136.335 207.200 C 62.859 207.383,56.100 207.455,55.000 208.060 C 53.007 209.156,49.019 213.647,47.772 216.200 L 46.600 218.600 46.480 244.600 C 46.340 274.671,46.078 272.434,50.261 276.812 C 54.803 281.567,54.908 281.600,65.500 281.600 C 76.678 281.600,77.128 281.423,77.719 276.810 C 78.355 271.840,85.134 260.600,88.767 258.492 C 89.775 257.906,91.640 256.667,92.910 255.739 C 97.212 252.594,98.487 252.328,108.586 252.473 L 117.400 252.600 121.819 254.893 C 130.386 259.338,137.193 268.221,137.974 275.975 C 138.329 279.497,138.845 280.685,140.250 281.219 C 142.056 281.906,246.546 281.717,248.204 281.024 C 250.214 280.184,251.040 278.531,251.330 274.771 C 251.726 269.646,253.086 267.266,259.165 261.062 C 264.697 255.417,264.862 255.302,269.899 253.589 C 275.341 251.738,285.814 251.791,291.755 253.700 L 295.800 255.000 301.325 260.395 C 308.042 266.954,309.461 269.327,309.965 274.851 C 310.576 281.554,310.883 281.681,326.107 281.522 L 337.800 281.400 342.200 279.145 C 344.620 277.905,346.895 276.555,347.255 276.145 C 349.594 273.487,352.361 268.642,353.521 265.177 L 354.800 261.354 354.797 240.577 L 354.794 219.800 353.389 215.671 C 350.800 208.062,346.571 202.495,341.207 199.636 C 338.484 198.185,330.750 195.600,329.131 195.600 C 328.513 195.600,327.062 195.233,325.904 194.783 C 324.747 194.334,322.540 193.865,321.000 193.741 C 319.460 193.616,316.580 192.975,314.600 192.315 C 306.498 189.616,305.274 188.092,295.395 168.411 L 287.654 152.987 284.675 150.194 C 279.329 145.181,273.215 142.063,266.335 140.842 C 265.090 140.621,263.403 140.161,262.586 139.820 C 260.936 139.130,223.022 138.911,221.400 139.582 M153.520 146.170 C 154.114 146.484,158.875 151.038,164.100 156.289 C 176.416 168.669,176.409 166.105,164.159 178.424 C 151.939 190.713,151.840 190.762,147.709 186.630 C 144.833 183.755,144.815 182.544,147.600 179.361 C 152.173 174.136,152.643 174.240,123.314 174.000 C 94.687 173.766,97.476 174.320,97.262 168.831 C 96.995 161.996,95.304 162.400,124.161 162.400 C 152.734 162.400,152.231 162.519,147.200 156.968 C 143.754 153.165,143.796 152.066,147.531 148.331 C 150.458 145.404,151.415 145.059,153.520 146.170 M268.048 157.425 C 273.986 160.496,281.016 170.432,284.361 180.482 C 284.841 181.926,285.850 183.974,286.603 185.032 C 287.355 186.090,288.091 187.506,288.238 188.178 C 288.386 188.850,289.028 190.705,289.667 192.301 C 290.954 195.518,290.809 196.512,288.950 197.219 C 287.110 197.918,238.975 197.711,237.595 196.998 C 235.630 195.981,235.539 194.999,235.675 176.065 L 235.800 158.730 236.922 157.765 L 238.045 156.800 252.442 156.800 C 264.712 156.800,267.018 156.892,268.048 157.425 M102.600 260.539 C 97.391 262.276,92.577 265.415,91.159 268.000 C 90.736 268.770,89.773 270.260,89.018 271.310 C 88.130 272.547,87.557 273.887,87.393 275.110 C 87.254 276.150,86.793 278.070,86.370 279.378 C 85.363 282.487,85.368 282.555,86.992 287.458 C 89.477 294.963,92.744 299.090,98.275 301.709 L 101.000 303.000 107.821 303.000 L 114.641 303.000 117.622 301.527 C 119.930 300.386,121.379 299.258,124.041 296.527 L 127.480 293.000 128.981 288.400 C 131.162 281.719,130.972 279.125,127.844 272.887 C 124.776 266.771,123.668 265.644,117.820 262.696 L 113.000 260.266 108.600 260.136 C 105.672 260.049,103.665 260.184,102.600 260.539 M274.800 260.353 C 269.750 262.013,263.486 267.402,260.798 272.400 L 259.400 275.000 259.400 281.447 L 259.400 287.894 261.708 292.535 C 262.978 295.087,264.418 297.460,264.908 297.808 C 272.175 302.961,272.752 303.161,280.400 303.180 C 287.924 303.199,288.679 303.005,293.328 299.870 L 297.000 297.392 299.500 292.484 L 302.000 287.575 302.000 281.634 L 302.000 275.693 300.405 272.507 C 298.348 268.397,293.517 263.597,289.394 261.567 C 286.525 260.155,277.650 259.417,274.800 260.353 " stroke="none" fill="#ffffff" fill-rule="evenodd"></path></g></svg>