<svg width="15" height="23" viewBox="0 0 15 23" fill="none" xmlns="http://www.w3.org/2000/svg">
<path d="M14.7428 7.65712C14.7428 11.6967 11.5193 14.9714 7.54283 14.9714C3.56638 14.9714 0.342834 11.6967 0.342834 7.65712C0.342834 3.61755 3.56638 0.342834 7.54283 0.342834C11.5193 0.342834 14.7428 3.61755 14.7428 7.65712Z" fill="black"/>
<path d="M7.54283 22.2857L1.30745 11.4805L13.7782 11.4805L7.54283 22.2857Z" fill="black"/>
<path d="M11.3143 7.54285C11.3143 9.62575 9.62575 11.3143 7.54285 11.3143C5.45995 11.3143 3.77142 9.62575 3.77142 7.54285C3.77142 5.45995 5.45995 3.77142 7.54285 3.77142C9.62575 3.77142 11.3143 5.45995 11.3143 7.54285Z" fill="white"/>
</svg>
